<?xml version="1.0" encoding="UTF-8" standalone="no"?>
<!-- Created with Inkscape (http://www.inkscape.org/) -->

<svg
   width="16"
   height="16"
   viewBox="0 0 4.2333332 4.2333337"
   version="1.1"
   id="svg5"
   inkscape:version="1.1.1 (3bf5ae0d25, 2021-09-20)"
   sodipodi:docname="favicon.svg"
   xmlns:inkscape="http://www.inkscape.org/namespaces/inkscape"
   xmlns:sodipodi="http://sodipodi.sourceforge.net/DTD/sodipodi-0.dtd"
   xmlns:xlink="http://www.w3.org/1999/xlink"
   xmlns="http://www.w3.org/2000/svg"
   xmlns:svg="http://www.w3.org/2000/svg">
  <sodipodi:namedview
     id="namedview7"
     pagecolor="#ffffff"
     bordercolor="#111111"
     borderopacity="1"
     inkscape:pageshadow="0"
     inkscape:pageopacity="0"
     inkscape:pagecheckerboard="1"
     inkscape:document-units="mm"
     showgrid="false"
     units="px"
     inkscape:zoom="20.48"
     inkscape:cx="7.3486328"
     inkscape:cy="5.6396485"
     inkscape:window-width="1366"
     inkscape:window-height="705"
     inkscape:window-x="-8"
     inkscape:window-y="-8"
     inkscape:window-maximized="1"
     inkscape:current-layer="layer1"
     height="710px" />
  <defs
     id="defs2">
    <linearGradient
       inkscape:collect="always"
       id="linearGradient15130">
      <stop
         style="stop-color:#50e1e5;stop-opacity:1"
         offset="0"
         id="stop15126" />
      <stop
         id="stop16050"
         offset="0.16467732"
         style="stop-color:#5c839a;stop-opacity:1" />
      <stop
         style="stop-color:#292836;stop-opacity:1"
         offset="0.82338661"
         id="stop16052" />
      <stop
         style="stop-color:#321916;stop-opacity:1"
         offset="1"
         id="stop15128" />
    </linearGradient>
    <inkscape:perspective
       id="perspective12276"
       inkscape:persp3d-origin="419.25598 : -81.571495 : 1"
       inkscape:vp_z="73.032233 : 343.69265 : 1"
       inkscape:vp_y="0 : 1000 : 0"
       inkscape:vp_x="762.38629 : 316.49454 : 1"
       sodipodi:type="inkscape:persp3d" />
    <linearGradient
       inkscape:collect="always"
       id="linearGradient10869">
      <stop
         style="stop-color:#ff0000;stop-opacity:1"
         offset="0"
         id="stop10871" />
      <stop
         style="stop-color:#ffff00;stop-opacity:0;"
         offset="1"
         id="stop10873" />
    </linearGradient>
    <linearGradient
       inkscape:collect="always"
       id="linearGradient32215">
      <stop
         style="stop-color:#ffffff;stop-opacity:1;"
         offset="0"
         id="stop32217" />
      <stop
         style="stop-color:#ffffff;stop-opacity:0;"
         offset="1"
         id="stop32219" />
    </linearGradient>
    <linearGradient
       inkscape:collect="always"
       id="linearGradient31478">
      <stop
         style="stop-color:#000000;stop-opacity:1;"
         offset="0"
         id="stop31480" />
      <stop
         style="stop-color:#000000;stop-opacity:0;"
         offset="1"
         id="stop31482" />
    </linearGradient>
    <linearGradient
       id="linearGradient31017"
       inkscape:collect="always">
      <stop
         id="stop31019"
         offset="0"
         style="stop-color:#00ccff;stop-opacity:1" />
      <stop
         id="stop31021"
         offset="1"
         style="stop-color:#0044aa;stop-opacity:1" />
    </linearGradient>
    <linearGradient
       inkscape:collect="always"
       id="linearGradient30777">
      <stop
         style="stop-color:#000080;stop-opacity:0"
         offset="0"
         id="stop30779" />
      <stop
         style="stop-color:#00ccff;stop-opacity:1"
         offset="1"
         id="stop30781" />
    </linearGradient>
    <linearGradient
       inkscape:collect="always"
       id="linearGradient29398">
      <stop
         style="stop-color:#ff0000;stop-opacity:1"
         offset="0"
         id="stop29400" />
      <stop
         style="stop-color:#800000;stop-opacity:1"
         offset="1"
         id="stop29402" />
    </linearGradient>
    <linearGradient
       id="linearGradient29225"
       inkscape:collect="always">
      <stop
         id="stop29227"
         offset="0"
         style="stop-color:#b3b3b3;stop-opacity:1" />
      <stop
         id="stop29229"
         offset="1"
         style="stop-color:#ffffff;stop-opacity:0;" />
    </linearGradient>
    <linearGradient
       inkscape:collect="always"
       id="linearGradient8850">
      <stop
         style="stop-color:#666666;stop-opacity:1"
         offset="0"
         id="stop8852" />
      <stop
         style="stop-color:#e6e6e6;stop-opacity:1"
         offset="1"
         id="stop8854" />
    </linearGradient>
    <inkscape:perspective
       sodipodi:type="inkscape:persp3d"
       inkscape:vp_x="5.150616 : 867.21316 : 1"
       inkscape:vp_y="0 : 1000 : 0"
       inkscape:vp_z="988.53596 : 864.22686 : 1"
       inkscape:persp3d-origin="630.4412 : 78.463654 : 1"
       id="perspective18995" />
    <linearGradient
       inkscape:collect="always"
       xlink:href="#linearGradient32215"
       id="linearGradient11278-8"
       gradientUnits="userSpaceOnUse"
       gradientTransform="matrix(0.9385744,0,0,0.9385744,583.7807,153.33106)"
       x1="349.99597"
       y1="872.45819"
       x2="349.99597"
       y2="669.03229" />
    <linearGradient
       y2="742.88397"
       x2="351.02261"
       y1="1032.6744"
       x1="351.02261"
       gradientTransform="matrix(0,-1.9116905,1.9116905,0,-1030.7428,769.31114)"
       gradientUnits="userSpaceOnUse"
       id="linearGradient11398"
       xlink:href="#linearGradient32215"
       inkscape:collect="always" />
    <linearGradient
       inkscape:collect="always"
       xlink:href="#linearGradient32215"
       id="linearGradient11324-6"
       gradientUnits="userSpaceOnUse"
       gradientTransform="matrix(0,-1.9116905,1.9116905,0,-546.60131,926.47038)"
       x1="351.02261"
       y1="1032.6744"
       x2="351.02261"
       y2="742.88397" />
    <linearGradient
       inkscape:collect="always"
       xlink:href="#linearGradient32215"
       id="linearGradient11124"
       x1="288.22827"
       y1="617.33875"
       x2="305.90875"
       y2="680.73798"
       gradientUnits="userSpaceOnUse" />
    <linearGradient
       inkscape:collect="always"
       xlink:href="#linearGradient8850"
       id="linearGradient8856"
       x1="124.75774"
       y1="995.88892"
       x2="124.75774"
       y2="520.83539"
       gradientUnits="userSpaceOnUse" />
    <clipPath
       id="clipPath18983"
       clipPathUnits="userSpaceOnUse">
      <rect
         ry="6.0204554"
         rx="5.3669968"
         y="377.28311"
         x="462.55518"
         height="127.75334"
         width="204.11165"
         id="rect18985"
         style="fill:#0000ff;fill-rule:evenodd;stroke:#000000;stroke-width:1px;stroke-linecap:butt;stroke-linejoin:miter;stroke-opacity:1" />
    </clipPath>
    <linearGradient
       inkscape:collect="always"
       xlink:href="#linearGradient32215"
       id="linearGradient29247-2"
       gradientUnits="userSpaceOnUse"
       gradientTransform="matrix(0.98786693,0,0,0.67003737,-6.2714654,-169.09397)"
       x1="561.87811"
       y1="-366.99567"
       x2="561.87811"
       y2="-388.64764" />
    <clipPath
       clipPathUnits="userSpaceOnUse"
       id="clipPath29875">
      <path
         style="display:inline;fill:none;stroke:#ffff00;stroke-width:4;stroke-linecap:butt;stroke-linejoin:miter;stroke-opacity:1"
         d="m 271.40481,-375.71164 0.71869,1.625 c 257.34964,3.62524 465.46874,463.95959 465.46874,1031.3438 0,0.3022 2e-4,0.6041 0,0.9063 l 0.625,1.4062 h 212.1876 v -1015.2813 c 0,-14.2043 -6.6595,-20 -19.5,-20 z"
         id="path29877"
         inkscape:connector-curvature="0" />
    </clipPath>
    <clipPath
       clipPathUnits="userSpaceOnUse"
       id="clipPath29920">
      <rect
         style="fill:#0000ff;fill-rule:evenodd;stroke:none"
         id="rect29922"
         width="990"
         height="1530"
         x="0"
         y="-477.63724"
         rx="12.217699"
         ry="10.540621" />
    </clipPath>
    <linearGradient
       inkscape:collect="always"
       xlink:href="#linearGradient29398"
       id="linearGradient31145"
       gradientUnits="userSpaceOnUse"
       x1="464.84128"
       y1="-33.468044"
       x2="464.84128"
       y2="-101.43774" />
    <linearGradient
       inkscape:collect="always"
       xlink:href="#linearGradient32215"
       id="linearGradient31147"
       gradientUnits="userSpaceOnUse"
       x1="462.60342"
       y1="-135.94365"
       x2="462.60342"
       y2="-64.717422" />
    <linearGradient
       inkscape:collect="always"
       xlink:href="#linearGradient31478"
       id="linearGradient32249"
       gradientUnits="userSpaceOnUse"
       gradientTransform="matrix(1,0,0,3.1737609,0,-2287.5852)"
       x1="466.02231"
       y1="1042.1653"
       x2="466.02231"
       y2="1000.3559" />
    <linearGradient
       inkscape:collect="always"
       xlink:href="#linearGradient29225"
       id="linearGradient32251"
       gradientUnits="userSpaceOnUse"
       x1="622.04291"
       y1="-466.3038"
       x2="622.04291"
       y2="-438.01205" />
    <linearGradient
       inkscape:collect="always"
       xlink:href="#linearGradient31017"
       id="linearGradient32255"
       gradientUnits="userSpaceOnUse"
       x1="464.84128"
       y1="-33.468044"
       x2="464.84128"
       y2="-101.43774" />
    <linearGradient
       inkscape:collect="always"
       xlink:href="#linearGradient10869"
       id="linearGradient10875"
       x1="-212.10643"
       y1="-163.1703"
       x2="-348.75192"
       y2="-167.24927"
       gradientUnits="userSpaceOnUse"
       gradientTransform="matrix(1.1878442,0,0,1.1878442,73.223485,22.627938)" />
    <linearGradient
       inkscape:collect="always"
       xlink:href="#linearGradient30777"
       id="linearGradient10877"
       gradientUnits="userSpaceOnUse"
       gradientTransform="translate(-225.8503,-860.57163)"
       x1="635.2146"
       y1="286.86148"
       x2="635.2146"
       y2="139.52235" />
    <linearGradient
       inkscape:collect="always"
       xlink:href="#linearGradient10869"
       id="linearGradient11103"
       gradientUnits="userSpaceOnUse"
       gradientTransform="matrix(0.23188801,0,0,0.23188801,-439.12389,-434.2708)"
       x1="-212.10643"
       y1="-163.1703"
       x2="-348.75192"
       y2="-167.24927" />
    <linearGradient
       inkscape:collect="always"
       xlink:href="#linearGradient32215"
       id="linearGradient13485"
       gradientUnits="userSpaceOnUse"
       gradientTransform="matrix(1.0017846,0,0,1.198343,-21.367394,-526.80156)"
       x1="-109.2384"
       y1="-491.70157"
       x2="374.52698"
       y2="599.54681" />
    <linearGradient
       inkscape:collect="always"
       xlink:href="#linearGradient32215"
       id="linearGradient14018"
       gradientUnits="userSpaceOnUse"
       gradientTransform="matrix(-1.0018379,0,0,-1.0867035,1011.3948,1096.9879)"
       x1="-109.2384"
       y1="-491.70157"
       x2="374.52698"
       y2="599.54681" />
    <clipPath
       clipPathUnits="userSpaceOnUse"
       id="clipPath14070">
      <rect
         ry="0"
         rx="0"
         y="-477.63724"
         x="3.7107193e-13"
         height="1530"
         width="990"
         id="rect14072"
         style="opacity:0.5;fill:#0000ff;fill-rule:evenodd;stroke:none" />
    </clipPath>
    <linearGradient
       inkscape:collect="always"
       xlink:href="#linearGradient32215"
       id="linearGradient10631"
       gradientUnits="userSpaceOnUse"
       gradientTransform="translate(-865.42632,279.0994)"
       x1="288.71066"
       y1="-793.13306"
       x2="154.21602"
       y2="-793.13306" />
    <pattern
       id="pattern16122"
       patternTransform="translate(-811.17872,496.86455)"
       height="290.68932"
       width="290.72009"
       patternUnits="userSpaceOnUse">
      <path
         sodipodi:type="star"
         style="fill:#ffff00;fill-rule:evenodd;stroke:none"
         id="path15374"
         sodipodi:sides="65"
         sodipodi:cx="254.54152"
         sodipodi:cy="1323.8293"
         sodipodi:r1="145.40681"
         sodipodi:r2="74.281784"
         sodipodi:arg1="-2.6901395"
         sodipodi:arg2="-2.3611841"
         inkscape:flatsided="false"
         inkscape:rounded="0"
         inkscape:randomized="0"
         d="m 123.70242,1260.3922 78.05252,11.1747 -71.31915,-23.5063 76.60963,18.6557 -68.71751,-30.28 74.45145,25.9626 -65.47428,-36.7708 71.59813,33.0269 -61.61973,-42.9183 68.07634,39.783 -57.18986,-48.6651 63.91892,46.1675 -52.22601,-53.9575 59.16471,52.1211 -46.77455,-58.7462 53.8581,57.588 -40.88636,-62.9863 48.04862,62.5172 -34.61643,-66.6384 41.79053,66.8627 -28.0233,-69.6682 35.14226,70.5839 -21.16852,-72.0476 28.16587,73.6461 -14.1161,-73.7544 20.92651,76.0208 -6.93188,-74.7725 13.49175,77.6856 0.31707,-75.0925 5.93103,78.6251 7.56305,-74.7113 -1.68506,78.8304 14.73841,-73.6325 -9.28542,78.2997 21.77617,-71.8663 -16.79909,77.038 28.61062,-69.4291 -24.15592,75.0571 35.17793,-66.3437 -31.2872,72.3753 41.4168,-62.6388 -38.12636,69.0177 47.26896,-58.349 -44.60954,65.0158 52.67979,-53.5146 -50.67623,60.4069 57.59877,-48.1804 -56.26976,55.2339 61.97996,-42.3964 -61.33791,49.5452 65.78245,-36.2165 -65.83336,43.394 68.97075,-29.6986 -69.71415,36.8376 71.5151,-22.9033 -72.94404,29.9372 73.39173,-15.8942 -75.49287,22.7574 74.58311,-8.7367 -77.33684,15.365 75.07815,-1.4975 -78.45875,7.8292 74.87219,5.7555 -78.8481,0.2203 73.96717,12.9548 -78.50126,-7.3907 72.37153,20.0333 -77.42148,-14.9327 70.10019,26.9246 -75.61884,-22.3352 67.17434,33.5646 -73.11017,-29.5292 63.6213,39.8911 -69.91889,-36.4475 59.47425,45.8452 -66.07479,-43.0255 54.7719,51.3713 -61.61377,-49.2018 49.55815,56.4178 -56.57747,-54.9187 43.8817,60.9374 -51.01293,-60.1228 37.79553,64.8881 -44.9721,-64.7656 31.35649,68.233 -38.51137,-68.8036 24.62467,70.9408 -31.69108,-72.1994 17.66294,72.9862 -24.57489,-74.9209 10.5363,74.3503 -17.22925,-76.943 3.31127,75.02 -9.72275,-78.2467 -3.94466,74.9894 -2.12547,-78.8197 -11.16377,74.2586 5.49166,-78.6569 -18.27864,72.8345 13.05751,-77.7597 -25.22285,70.7303 20.50144,-76.1365 -31.93156,67.9658 27.75397,-73.8024 -38.34214,64.5667 34.74735,-70.7792 -44.39472,60.5647 41.41632,-67.0952 -50.0328,55.9972 47.69858,-62.7846 -55.20374,50.9069 53.53551,-57.888 -59.85927,45.3414 58.87259,-52.4509 -63.95589,39.3525 63.65997,-46.524 -67.45537,32.9961 67.85299,-40.1626 -70.32505,26.3316 71.41249,-33.4264 -72.53812,19.4214 74.30523,-26.3781 -74.07393,12.3298 76.5042,-19.0834 -74.91812,5.123 77.98887,-11.6106 -75.06283,-2.1315 78.74538,-4.0294 -74.50668,-9.3662 78.76666,3.5894 z"
         transform="translate(-109.20854,-1178.5425)"
         inkscape:transform-center-y="-28.943195" />
    </pattern>
    <radialGradient
       inkscape:collect="always"
       xlink:href="#linearGradient15130"
       id="radialGradient15134-7-2"
       cx="540.38275"
       cy="27.302429"
       fx="540.38275"
       fy="27.302429"
       r="475.56677"
       gradientTransform="matrix(0.82501153,0,0,0.42681124,-187.98783,238.3469)"
       gradientUnits="userSpaceOnUse" />
    <pattern
       y="0"
       x="0"
       height="6"
       width="6"
       patternUnits="userSpaceOnUse"
       id="EMFhbasepattern" />
    <pattern
       y="0"
       x="0"
       height="6"
       width="6"
       patternUnits="userSpaceOnUse"
       id="EMFhbasepattern-7" />
    <pattern
       y="0"
       x="0"
       height="6"
       width="6"
       patternUnits="userSpaceOnUse"
       id="EMFhbasepattern-3" />
    <pattern
       y="0"
       x="0"
       height="6"
       width="6"
       patternUnits="userSpaceOnUse"
       id="EMFhbasepattern-5" />
    <pattern
       y="0"
       x="0"
       height="6"
       width="6"
       patternUnits="userSpaceOnUse"
       id="EMFhbasepattern-9" />
    <pattern
       y="0"
       x="0"
       height="6"
       width="6"
       patternUnits="userSpaceOnUse"
       id="EMFhbasepattern-4" />
    <pattern
       y="0"
       x="0"
       height="6"
       width="6"
       patternUnits="userSpaceOnUse"
       id="EMFhbasepattern-2" />
    <pattern
       y="0"
       x="0"
       height="6"
       width="6"
       patternUnits="userSpaceOnUse"
       id="EMFhbasepattern-0" />
    <pattern
       y="0"
       x="0"
       height="6"
       width="6"
       patternUnits="userSpaceOnUse"
       id="EMFhbasepattern-39" />
    <pattern
       y="0"
       x="0"
       height="6"
       width="6"
       patternUnits="userSpaceOnUse"
       id="EMFhbasepattern-09" />
    <pattern
       y="0"
       x="0"
       height="6"
       width="6"
       patternUnits="userSpaceOnUse"
       id="EMFhbasepattern-50" />
    <pattern
       y="0"
       x="0"
       height="6"
       width="6"
       patternUnits="userSpaceOnUse"
       id="EMFhbasepattern-1" />
    <pattern
       y="0"
       x="0"
       height="6"
       width="6"
       patternUnits="userSpaceOnUse"
       id="EMFhbasepattern-8" />
    <pattern
       y="0"
       x="0"
       height="6"
       width="6"
       patternUnits="userSpaceOnUse"
       id="EMFhbasepattern-6" />
    <pattern
       y="0"
       x="0"
       height="6"
       width="6"
       patternUnits="userSpaceOnUse"
       id="EMFhbasepattern-094" />
    <pattern
       y="0"
       x="0"
       height="6"
       width="6"
       patternUnits="userSpaceOnUse"
       id="EMFhbasepattern-25" />
    <pattern
       y="0"
       x="0"
       height="6"
       width="6"
       patternUnits="userSpaceOnUse"
       id="EMFhbasepattern-65" />
  </defs>
  <g
     inkscape:label="Capa 1"
     inkscape:groupmode="layer"
     id="layer1">
    <path
       id="path226"
       style="fill:#ffffff;stroke:#c99d6a;stroke-width:0.0275926;stroke-linecap:butt;stroke-linejoin:miter;stroke-miterlimit:4;stroke-dasharray:none;stroke-opacity:1"
       d="M 3.3111198,0.92042575 2.1978206,1.9548355 2.393499,2.136065 3.3114904,1.2811071 3.6897196,1.6330716 c 0,0 0.4630519,0.4144372 -0.023708,1.0311983 C 3.2238262,3.1398762 2.58099,2.7261467 2.5368566,2.7015136 2.4812208,2.6722108 1.5870931,1.7224603 1.3939187,1.6426439 1.1409717,1.5019697 0.83165564,1.349453 0.40448111,1.6949068 -0.02269342,2.040361 -0.07470004,2.5269664 0.28932703,2.9058515 0.65335399,3.2847372 1.2588277,3.236449 1.6488565,2.8612787 1.6042818,2.7944168 0.78336611,2.0217856 0.78336611,2.0217856 L 0.5939235,2.2075209 1.2588308,2.8315635 c 0,0 -0.44946102,0.2525869 -0.77262783,-0.1002963 C 0.16303626,2.3783838 0.40447913,2.0589342 0.51220123,1.9474975 0.61992353,1.8360606 0.9170873,1.6911973 1.2216814,1.8286359 1.3835095,1.8870396 2.2976791,2.8343113 2.3583366,2.8835704 2.4686502,2.9725952 3.2275464,3.4816119 3.8478777,2.8315635 4.4682097,2.181514 4.032212,1.5932263 4.0038885,1.5611881 3.9865497,1.5371573 3.3111198,0.92042575 3.3111198,0.92042575 Z"
       sodipodi:nodetypes="ccccccccssccccssccscc" />
    <g
       id="g17173"
       transform="matrix(2.7024953e-4,2.451131e-4,-2.524753e-4,2.6236902e-4,4.2069976,1.3912222)"
       style="fill:#ffffff;stroke:#c99d6a;stroke-width:17.0226;stroke-miterlimit:4;stroke-dasharray:none;stroke-opacity:1">
      <path
         stroke="#000000"
         stroke-width="0.0938"
         d="m 168.78424,4252.4659 c -1.5801,-9.1401 -4.67,-18.21 -10.25,-25.7 -9.28,-13.02 -24.66,-20.8501 -40.35,-22.6301 -14.1801,-0.5898 -28.380001,-0.1099 -42.570101,-0.3101 -9.71,-21.7898 -25.13,-40.48 -41.96,-57.1599 -33.32010031,-32.47 -73.15,-57.3699 -114.15,-78.95 -5.3199,-3.4299 -7.85,-9.6201 -10.87,-14.9199 -8.789999,-17.6802 -14.449999,-36.9502 -16.579999,-56.5801 -3.64,-28.9501 2.95,-59.8301 21.209999,-83 16.04,-0.07 32.08,-0.06 48.12,0.02 0.091,0 0.1815,0 0.2722,-0.01 l 8.2278,-2.4244 c 14.6801,-1.3 29.60999969,-7.05 39.2299997,-18.61 7.4100003,-8.98 11.2500003,-20.47 12.1200003,-31.97 0.79,-6.99 0.47,-14.03 0.53,-21.04 -0.02,-15.35 0.02,-30.71 -0.01,-46.0601 -0.35,-13.6 -3.24,-27.7999 -11.8500003,-38.7 -8.6805,-14.6707 -50.6578997,-19.0577 -36.2900997,-20.39 0.7001,-45.28 8.65,-90.14 19.5199997,-134.01 11.05,-44.08 24.8500003,-87.4099 39.4399003,-130.4299 13.0901,-39.4701 26.64,-78.79 39.7201,-118.27 28.860001,-87.83 54.080001,-177.27 67.100001,-268.97 4.4399,-30.66 7.5699,-61.53 9.12,-92.4601 1.01,-7.89 0.34,-15.84 0.92,-23.7499 0.73,-12.31 0.76,-24.64 0.6599,-36.9599 -0.08,-10.35 -1.0699,-20.6599 -0.96,-31.01 -2,-43.09 -6.67,-86.1 -14.45,-128.5601 -15.13,-84.0499 -41.620001,-165.8199 -76.070101,-243.8899 -7.64,-17.3101 -15.45,-34.5901 -25.12,-50.89 -33.83000031,-58.41 -75.4,-112.2301 -122.0699,-160.9301 -57.149999,-59.5 -122.810099,-111.03 -195.109999,-150.9099 -84.12,-46.6501 -177.09,-77.05 -272.41004,-89.76 l -58.8598,-9.9255 c -33.1499,-22.2999 -66.5798,-44.1901 -100.1099,-65.91 -7.0701,-4.8799 -14.7001,-8.8 -22.28,-12.8 -12.39,-6.22 -24.89,-12.2599 -37,-19 -2.0801,7.1301 -1.21,14.6501 -2.23,21.9401 -2.22,54.65 0.8899,110.33 17.6699,162.74 5.14,15.88 11.42,31.5 20.0801,45.8099 34.1299,-14.3198 71.54,-18.5099 108.23,-19.6499 -73.3101,27.23 -143.88,62.6899 -207.29,108.6699 -16.7,12.1401 -32.94,25 -47.98,39.16 -1.62,1.9301 -4.23,0.5601 -6.28,0.37 -19.67,-4.3 -40.38,0.05 -58.02,9.27 -5.85,3.23 -12.59,5.8301 -16.45,11.61 -5.65,8.53 -8.3,18.58 -10.62,28.4301 -6.78,29.78 -8.62,60.3899 -14.36,90.35 -1.42,5.63 -2.09,11.77 -5.54,16.62 -73.65,90.9699 -145.69,183.6 -208.35,282.6 -10.69,16.6399 -21.18,33.4199 -32.32,49.7699 -9.55,13.27 -18.14,27.59 -22.47,43.4801 -4.1,14.4399 -4.3,30.1099 0.41,44.4299 9.31,29.34 24.12,57.2099 44.83,80.1099 13.12,14.48 28.51,26.88 45.45,36.61 5.92,3.55 12.39,6.0701 18.31,9.63 12.3,4.65 25.39,6.78 38.35,8.6801 13.47,1.8199 27.06,2.6 40.65,2.62 12.93,-19.37 27.91,-37.28 43.51,-54.53 28.32,-31.01 58.87,-59.93 90.68,-87.3299 2.95,-3.15 7.53,-1.26 11.28,-1.41 63.56,2.99 128.0001,0.7799 190.07,-14.26 48.76,-11.8199 96.15,-32.64 134.4,-65.59 17.6699,-14.8501 32.77,-32.47 46.4299,-51 -0.3799,4.5699 -0.3699,9.45 -2.86,13.5 -1.8099,3.9299 -5.12,7.4199 -5.16,11.96 -3.97,42.74 -16.5399,84.27 -33.33,123.64 -16.63,38.93 -37.46,75.9699 -60.5299,111.4199 -41.37,63.5599 -89.86,122.1799 -141.2499,177.8399 -24.1401,26.46 -49.86,51.4199 -74.6,77.3099 -53.28,56.49 -99.58,119.86 -134.8701,189.13 -40.5099,79.5801 -67.04,167.13 -71.35,256.6 -0.05,2.66 -0.03,5.3401 -0.02,8.04 -9.54,-0.01 -19.17,-0.37 -28.57,1.63 -15.8,2.91 -31.39,10.52 -41.13,23.65 -5.47,7.23 -8.52,15.98 -10.15,24.8199 -1.33,13.9301 -0.5,27.9401 -0.73,41.92 0.28,13.6 -0.94,27.37 1.74,40.8 2.51,12.3899 9.76,23.6499 19.83,31.26 10.66,8.1102 23.82,12.4102 37.02,13.9402 12.46,1.78 25.12,0.21 37.59,1.27 12.45,13.51 20.22,31.0499 23.12,49.12 3.82,24.64 -0.22,50.0299 -9.09,73.2001 -3.41,8.5 -7.19,16.9399 -12.49,24.46 -1.54,2.0798 -3.24,4.1699 -5.53,5.48 -35.01,17.6699 -69.07,37.71 -99.42,62.6799 -24.86,20.74 -48.19,45.1301 -60.4,75.6401 -17.65,0.5898 -35.55,4.8298 -50.63,14.2798 -10.58,6.52 -19.46,15.9302 -24.91,27.1401 -3.79,7.29 -5.29,15.4299 -7.24,23.3401 v 135.3899 c 493.66,0.09 987.33014,0.02 1480.99004,0.03 0.02,-39.01 0,-78.02 0,-117.03 -0.14,-11.5801 0.64,-23.25 -1.34,-34.72 z"
         id="path17117"
         style="fill:#ffffff;stroke:#c99d6a;stroke-width:60.2187;stroke-miterlimit:4;stroke-dasharray:none;stroke-opacity:1"
         sodipodi:nodetypes="cccccccccscccccccccccccccccsccccccccccccccccccccccccccccccccccccccccccccccccccccccccccccccccc" />
      <path
         fill="#555656"
         stroke="#555656"
         stroke-width="0.0938"
         d="m 1364.1899,903.61 c 1.42,-0.32 1.6201,2.13 0.6001,2.72 -1.45,0.29 -1.66,-2.16 -0.6001,-2.72 z"
         id="path17129"
         style="fill:#ffffff;stroke:#c99d6a;stroke-width:17.0226;stroke-miterlimit:4;stroke-dasharray:none;stroke-opacity:1" />
    </g>
  </g>
</svg>
